<svg width="56" height="75" viewBox="0 0 56 75" fill="none" xmlns="http://www.w3.org/2000/svg">
<path d="M0.60644 41V0.434142H18.1077C22.6279 0.434142 26.1243 1.34204 28.5969 3.15785C31.1081 4.97366 32.3637 7.54283 32.3637 10.8654C32.3637 13.0675 31.8422 14.9219 30.799 16.4287C29.7945 17.9354 28.4037 19.0751 26.6265 19.8478C24.888 20.6205 22.9756 21.0068 20.8894 21.0068L21.8745 19.616C24.463 19.616 26.6845 20.0217 28.5389 20.833C30.432 21.6057 31.9001 22.784 32.9432 24.368C33.9863 25.9134 34.5079 27.8451 34.5079 30.1631C34.5079 33.6016 33.233 36.2673 30.6831 38.1604C28.1719 40.0535 24.3664 41 19.2667 41H0.60644ZM4.89483 37.465H19.2088C22.7631 37.465 25.4868 36.8661 27.3799 35.6685C29.273 34.4322 30.2195 32.4812 30.2195 29.8154C30.2195 27.1883 29.273 25.2759 27.3799 24.0782C25.4868 22.842 22.7631 22.2238 19.2088 22.2238H4.43122V18.6888H17.818C21.0632 18.6888 23.5744 18.0706 25.3516 16.8343C27.1674 15.598 28.0753 13.7629 28.0753 11.329C28.0753 8.85639 27.1674 7.02126 25.3516 5.82361C23.5744 4.58731 21.0632 3.96917 17.818 3.96917H4.89483V37.465Z" fill="black"/>
<path d="M21.1309 74.2012V33.6353H38.6321C43.1523 33.6353 46.6487 34.5432 49.1213 36.359C51.6325 38.1748 52.8881 40.744 52.8881 44.0665C52.8881 46.2687 52.3666 48.1231 51.3234 49.6299C50.319 51.1366 48.9281 52.2763 47.151 53.049C45.4124 53.8217 43.5 54.208 41.4138 54.208L42.399 52.8172C44.9874 52.8172 47.2089 53.2228 49.0633 54.0341C50.9564 54.8068 52.4245 55.9852 53.4676 57.5692C54.5108 59.1145 55.0323 61.0462 55.0323 63.3643C55.0323 66.8027 53.7574 69.4685 51.2075 71.3616C48.6963 73.2546 44.8909 74.2012 39.7911 74.2012H21.1309ZM25.4192 70.6661H39.7332C43.2875 70.6661 46.0112 70.0673 47.9043 68.8697C49.7974 67.6334 50.7439 65.6823 50.7439 63.0166C50.7439 60.3895 49.7974 58.4771 47.9043 57.2794C46.0112 56.0431 43.2875 55.425 39.7332 55.425H24.9556V51.89H38.3424C41.5876 51.89 44.0989 51.2718 45.876 50.0355C47.6918 48.7992 48.5997 46.9641 48.5997 44.5301C48.5997 42.0576 47.6918 40.2224 45.876 39.0248C44.0989 37.7885 41.5876 37.1703 38.3424 37.1703H25.4192V70.6661Z" fill="black"/>
</svg>
